PathFileType	4	(X/Y/Z)	Patient4_TMGait_0pt5_01_right_09.trc.trc
DataRate	CameraRate	NumFrames	NumMarkers	Units	OrigDataRate	OrigDataStartFrame	OrigNumFrames
72.916666666667	72.916666666667	7	33	mm	72.916666666667	36	       141
Frame#	Time	L.ASIS			Sacral			L.Shoulder			Chest			R.Shoulder			Neck			R.ASIS			R.Thigh.Superior			R.Thigh.Lateral			R.Thigh.Inferior			R.Patella			L.Thigh.Superior			L.Thigh.Lateral			L.Thigh.Inferior			L.Patella			L.Shank.Superior			L.Shank.Lateral			L.Shank.Inferior			R.Shank.Superior			R.Shank.Lateral			R.Shank.Inferior			R.Heel			R.Midfoot.Superior			R.Midfoot.Lateral			R.Toe			L.Heel			L.Midfoot.Lateral			L.Midfoot.Superior			L.Toe			L.Elbow			L.Wrist			R.Elbow			R.Wrist			
		X1	Y1	Z1	X2	Y2	Z2	X3	Y3	Z3	X4	Y4	Z4	X5	Y5	Z5	X6	Y6	Z6	X7	Y7	Z7	X8	Y8	Z8	X9	Y9	Z9	X10	Y10	Z10	X11	Y11	Z11	X12	Y12	Z12	X13	Y13	Z13	X14	Y14	Z14	X15	Y15	Z15	X16	Y16	Z16	X17	Y17	Z17	X18	Y18	Z18	X19	Y19	Z19	X20	Y20	Z20	X21	Y21	Z21	X22	Y22	Z22	X23	Y23	Z23	X24	Y24	Z24	X25	Y25	Z25	X26	Y26	Z26	X27	Y27	Z27	X28	Y28	Z28	X29	Y29	Z29	X30	Y30	Z30	X31	Y31	Z31	X32	Y32	Z32	X33	Y33	Z33	

36	11.920000000000	736.074749834902	959.505785440722	332.350169292197	516.608579642498	992.951160350552	482.493544071096	682.894412051988	1438.135253379882	327.829794700491	778.865969345715	1363.231331746416	491.134831461316	681.297682127443	1425.002131568143	664.386915822666	672.189799606891	1490.650787628914	481.406047807859	744.475993822931	936.351385089877	606.015087066562	811.934096280587	748.697668541770	572.647685347623	745.387358124786	631.845095676790	630.997499608719	829.963886893295	589.407594030244	551.192452831280	842.696118466098	498.950282886582	557.095413155343	772.490335403771	735.168399958592	352.865929634453	681.631038730149	624.294546135751	286.837411102408	762.480836883337	536.911584194639	345.280658748328	752.541602199290	451.739459593982	342.613949773551	685.455100278022	393.493253702279	337.257235745494	548.063082968059	345.215398010146	285.479282433704	535.189849559181	219.279147887225	346.330263770201	818.259481213503	408.180372619726	564.582455850416	752.747678072965	300.894745061451	625.662914198116	799.708578037178	208.333390405006	563.602737100514	671.820628007248	42.286489749193	532.462191487050	842.355566168830	97.918039845495	570.017626379150	754.482747200165	36.333259511281	608.143295210949	962.392324098636	45.780760579605	598.706326167561	344.910246789512	142.100651992602	377.599586439740	410.899062669678	102.056266996425	301.884361473270	511.768505625952	121.953195797431	327.763104963263	602.176232286682	31.902223966555	308.382363494602	677.937233355355	1094.468402895340	182.146703151751	868.626790359138	916.869322379107	212.601257831636	637.554329464303	1079.952082891794	773.083105052679	790.170198356016	869.611100376809	767.781378527182	
37	11.933714285714	735.359670681421	960.266172457144	334.647729387427	516.886251499989	993.894288998702	486.358616425278	682.048577746543	1439.070047528907	330.825104859709	779.522737525426	1363.956986809249	493.136530613563	683.719701067039	1425.587322501457	667.401729527975	672.693029638337	1491.459243570487	484.610114391213	745.590752860639	937.225908667793	608.169864858280	811.029266347857	748.005228746404	575.851609218412	743.000731323483	631.884423184174	633.428005611429	827.289650343108	588.748470783954	553.709318131026	839.005441988771	498.250018077372	559.262523640530	777.151935568616	738.092399701943	354.830966379704	690.181425867577	625.172020595424	288.166165189638	774.021874179168	539.530301103471	345.999009891992	765.264046785231	453.168887223918	342.462533640582	696.378170082200	395.027958726093	337.478294578466	556.861603533255	351.568853482853	286.768517600048	540.629178072547	225.727768843413	346.976575566771	813.868488431470	407.710248449767	566.378931102365	747.503646675585	300.660927869839	626.822395140149	793.914968738444	208.036510673061	564.515734746427	665.062098779184	42.356361156366	532.667227801503	835.707544867844	97.909011194341	570.414813834955	747.707363509920	36.319932992944	608.341443133836	955.660487419904	45.482141657204	598.961607615728	347.689548747152	156.900677233670	379.335226501989	411.245143815462	113.699434158110	303.042302785179	513.523933679096	128.080709328778	328.298476469335	598.442836320454	31.794108048774	308.052497344889	673.585378379090	1095.066147968236	185.869557949120	861.032846715868	913.191933478729	212.929255732123	642.921222664283	1080.888806483754	778.322744143368	799.108222335971	873.328347443160	772.456436779812	
38	11.947428571429	734.504730484647	960.940387890530	336.789837527062	516.999004771607	994.780728543369	490.089373257718	681.024705946374	1439.894606137340	333.640506429423	780.058888885270	1364.601547037872	494.932394933691	686.062441900258	1426.130625399353	670.182658135981	673.125836289918	1492.209427226564	487.607061283042	746.493035331600	938.045591819760	610.222026207372	809.820310369046	747.313435116799	578.910943403747	740.379658066563	631.929674689473	635.797072875917	824.361543829923	588.100129352148	556.181673358441	835.037036736289	497.576080248377	561.469023268726	781.490130760939	741.241390895595	356.736085034857	698.336531662742	626.460847759902	289.319945032378	784.981915581356	542.649985961771	346.590208624865	777.515595309599	455.207505777582	342.303369428960	707.175136649812	397.031386800746	337.626290930867	565.819984536993	357.839688450538	288.091242133228	546.768582381781	232.114134018489	347.732969974304	809.258310599520	407.263978341204	568.195438139948	742.066570857357	300.430533933072	627.984613670624	788.035794221790	207.764920548393	565.467813720311	658.253604536368	42.448573602327	532.873742470196	829.051271593091	97.860944432362	570.802457039532	740.888642007198	36.295860362038	608.529365502592	948.896636941937	45.070409943949	599.210603329032	351.798148459937	170.555787935935	381.457851699851	412.969402141746	124.872648292590	304.406455187632	516.399616169280	134.354393482651	328.903982181044	596.350116988656	32.178645754547	307.373128610962	668.952383964107	1095.562524811750	189.465552171360	852.707404395927	909.203196013710	212.973366682161	648.301856974685	1081.847771322415	783.392820278059	807.994626295139	877.097713919322	776.882396685399	
39	11.961142857143	733.526683903577	961.583410625745	338.775825352438	516.967498143225	995.622752046352	493.661018919147	679.854051662082	1440.653371869358	336.278056166966	780.465503910738	1365.198146453188	496.544308974540	688.275794103507	1426.656559742697	672.727023647292	673.500613170138	1492.933276259065	490.396151378452	747.193484552656	938.838803377822	612.178626271208	808.345800768301	746.677266075075	581.743109818470	737.570800505843	632.007964586202	638.051923595448	821.215354594207	587.487230560103	558.546067159651	830.827011978133	496.949515839391	563.636749567344	785.401402052612	744.607362911510	358.572547112590	705.915400928333	628.169994278241	290.312824739911	795.175278777625	546.242769131318	347.024419228008	789.117776639893	457.842593876455	342.086230657887	717.692711252127	399.474875406275	337.670513015366	574.789629325912	363.803377490849	289.418146402543	553.628037850433	238.136463380568	348.532145381489	804.462070487320	406.862443839678	569.972679565433	736.473047166467	300.235430068261	629.120279810139	782.085146400168	207.535249119070	566.426010771014	651.403166393590	42.561911580255	533.082701329010	822.388180635053	97.791126174196	571.175756660939	734.036701761989	36.271816489024	608.706228624853	942.103351106428	44.593729150314	599.450303835314	357.280020442936	182.360006237029	383.893247360580	416.238134457508	134.961791312815	305.914690785839	520.574296592478	140.421836434825	329.499247625267	596.352188171994	33.094865031663	306.303289671451	664.061079510249	1095.996417500224	192.975919896002	843.611407004630	904.935242804202	212.728110102668	653.715064214541	1082.823443994375	788.217479241890	816.821254103930	880.896211215577	781.016741072156	
40	11.974857142857	732.434367923995	962.257166167517	340.611561769729	516.812363655414	996.445199131177	497.058596185976	678.571049139458	1441.395742045630	338.748897723971	780.738461163372	1365.785584919520	497.999826726794	690.322013617289	1427.193756491973	675.047324301763	673.825506737465	1493.665621706056	492.984717072635	747.704663474708	939.631667088857	614.038452154723	806.632152544034	746.131329162099	584.292478963726	734.585738662129	632.136846855045	640.149432619040	817.856833231032	586.922629386204	560.752535496568	826.380560037627	496.386793856204	565.693587807611	788.806411580583	748.170262563186	360.319809607110	712.775416837882	630.279385798453	291.163318566953	804.467127072769	550.253825356674	347.276978380735	799.932939887826	461.037192928354	341.771402421756	727.819430530267	402.303883886884	337.588963497959	583.668736543388	369.218815667272	290.704903145654	561.256879056650	243.488577686798	349.297868059386	799.487368220614	406.523502748260	571.657254971634	730.737440816533	300.099632883958	630.199132090165	776.063133507155	207.362429795308	567.359475510274	644.519692515824	42.692144435272	533.292992938144	815.718354971240	97.717749169423	571.531427269423	727.161723252609	36.256285720344	608.871148276850	935.283555009312	44.102628232566	599.678652031940	364.177909686140	191.685179418726	386.517780647026	421.213122417309	143.382505793644	307.475042480008	526.235966004304	145.903400866036	330.002573532812	598.874112086150	34.495675022607	304.838555919111	658.940663901425	1096.418905768487	196.437968217893	833.710557221378	900.442209530009	212.204795874903	659.167266690317	1083.813313975074	792.728907804454	825.584627102228	884.716650537209	784.815904968850	
41	11.988571428571	731.229640152365	963.017048470093	342.306608489812	516.550918447679	997.279102553180	500.273979235813	677.209479265278	1442.165768487433	341.071205040137	780.879655454867	1366.398670194007	499.328305724025	692.180734678089	1427.766877584801	677.168963519273	674.102837270127	1494.435293039508	495.388400188345	748.037748134042	940.439282261959	615.791119456997	804.692995550619	745.687657414486	586.525808567578	731.414477876765	632.324404542322	642.059496188992	814.269266764669	586.407615621267	562.763211037379	821.679783572929	495.898085293048	567.579768788577	791.655119818624	751.893594686481	361.948670129006	718.820812018772	632.738631445003	291.894312204328	812.772622633860	554.601266579570	347.340585995680	809.863397637641	464.729426181438	341.346070870099	737.483200169950	405.439993744016	337.378989418940	592.404407737882	373.846655344336	291.898361668467	569.720551425091	247.888761434993	349.955695460705	794.323563041624	406.258837836739	573.206045162581	724.858542501809	300.036257225267	631.194288355166	769.960217136135	207.256163807559	568.241306449546	637.611329817842	42.832254389480	533.501074099850	809.040357081977	97.656000357894	571.866461712636	720.271964518714	36.254312203357	609.022941509692	928.440298292495	43.641867616280	599.893410989081	372.532666210860	198.040136154468	389.167802943368	428.038262273815	149.638394735223	308.973266177320	533.558561880343	150.433739417645	330.339881886126	604.261241868131	36.242438000216	303.011524113433	653.628112290156	1096.883372937569	199.877014362768	822.985605219596	895.798618472547	211.431602401178	664.650187466895	1084.812791584353	796.872166373540	834.286157207305	888.565461655841	788.234472213260	
42	12.002285714286	729.910223560371	963.900217590694	343.871270247244	516.194810690002	998.154590594841	503.302656167719	675.799620451071	1442.994320102767	343.266413279738	780.897073758588	1367.060292002539	500.557002781537	693.849389360039	1428.390095119406	679.124963364502	674.329026412685	1495.258494692349	497.629620044259	748.200375860394	941.260417843731	617.418910837908	802.532357442608	745.337691585914	588.426250337101	728.039668472877	632.569881061739	643.765921930917	810.423946805645	585.933557501974	564.550563786269	816.694936029197	495.486496427353	569.251740713183	793.928341308208	755.722012450300	363.428350584878	724.005195314607	635.470043557288	292.531795903897	820.050652501108	559.179030497871	347.234483508385	818.847025913232	468.833939545963	340.832162381045	746.643675413553	408.787104220922	337.061557101481	600.986192182919	377.471987735268	292.945495936595	579.083823009403	251.108143348326	350.441950101252	788.951186412247	406.072167449663	574.589083848969	718.827359141147	300.046613202343	632.085497650861	763.762705570000	207.218694520280	569.049815227165	630.684790260359	42.972918939676	533.701306096825	802.351007277207	97.615579559911	572.177333692906	713.372935633133	36.267209073199	609.160099720470	921.576669024934	43.245514016786	600.091935827533	382.381169882848	201.109388809791	391.658292666698	436.826459504640	153.367731649117	310.284963784982	542.679504526363	153.704420296581	330.450812928559	612.740230063387	38.130204992471	300.883318541863	648.167785323796	1097.436478800748	203.301169617559	811.440745797604	891.094473556112	210.450854558097	670.141568395840	1085.811143903328	800.607643934101	842.930752576679	892.458260341863	791.226376235377	
